# xmcd CD database file
#
# Track frame offsets:
#	150
#	33056
#	59853
#	83792
#	122657
#	167019
#	190325
#	220993
#	249343
#	275465
#
# Disc length: 3895 seconds
#
# Revision: 0
# Processed by: cddbd v1.5.2PL0 Copyright (c) Steve Scherf et al.
# Submitted via: CDex 1.51
#
DISCID=8b0f350a
DTITLE=Reggie Washington - A Lot Of Love, Live!
DYEAR=2008
DGENRE=Jazz
TTITLE0=Reuben's 2 Train
TTITLE1=Mr. Pastorius
TTITLE2=Half Positon Woody
TTITLE3=Jade 4 Giada
TTITLE4=Strange Meeting
TTITLE5=This One
TTITLE6=Ledge
TTITLE7=Fall
TTITLE8=Requiem Pour Un Con
TTITLE9=Fanny's toy
EXTD=YEAR: 2008
EXTT0=
EXTT1=
EXTT2=
EXTT3=
EXTT4=
EXTT5=
EXTT6=
EXTT7=
EXTT8=
EXTT9=
PLAYORDER=
